<?xml version="1.0" encoding="utf-8"?>
<!-- Generator: Adobe Illustrator 12.0.0, SVG Export Plug-In . SVG Version: 6.00 Build 51448)  -->
<!DOCTYPE svg PUBLIC "-//W3C//DTD SVG 1.1//EN" "http://www.w3.org/Graphics/SVG/1.1/DTD/svg11.dtd" [
	<!ENTITY ns_svg "http://www.w3.org/2000/svg">
	<!ENTITY ns_xlink "http://www.w3.org/1999/xlink">
]>
<svg  version="1.1" id="Layer_1" xmlns="&ns_svg;" xmlns:xlink="&ns_xlink;" width="78" height="55.334" viewBox="0 0 78 55.334"
	 overflow="visible" enable-background="new 0 0 78 55.334" xml:space="preserve">
<polygon points="78,48.083 53,48.333 45.334,55.334 36,55.334 36,52.333 30.75,52.333 27.75,55.334 0,55.334 0,0 78,0 "/>
<g>
	<path fill="#FFFFFF" d="M41.598,14.567c-3.926-0.099-25.315-1.276-27.67,5.004c-2.141,5.708,13.686,7.972,10.989,8.83
		C22.758,29.089,9.316,28.5,9.316,28.5s-1.865,4.219-2.453,6.182c5.102,0,18.77,0.348,23.156,0.196
		c5.69-0.196,8.83-7.359,3.729-10.499c-5.103-3.14-14.868-4.207-11.677-5.004c3.532-0.883,10.892-0.785,17.956-0.785
		C40.224,18.786,41.598,14.567,41.598,14.567z"/>
	<path fill="#FFFFFF" d="M44.934,14.469c0,0-1.473,4.219-1.374,4.121c2.854,0.141,5.076,0.562,6.68,1.141
		c0.058,0.037,6.011-4.411,6.011-4.477C55.203,15.058,48.96,14.562,44.934,14.469z"/>
	<path fill="#FFFFFF" d="M52.836,21.363c3.508-1.573,6.758-3.363,10.033-4.947c-0.956-0.247-3.033-0.629-4.199-0.836
		c-0.065-0.064-7.588,4.58-7.54,4.527C51.605,20.356,52.48,20.914,52.836,21.363z"/>
	<path fill="#FFFFFF" d="M64.688,16.954c-0.015,0.057-11.469,4.705-11.513,4.71c0.939,2.229-3.229,5.02-12.625,5.364
		c-0.131,0.13-2.78,7.882-2.78,7.751c0,0,13.372,0.18,18.839-0.785c6.672-1.177,12.657-4.022,14.228-8.732
		C71.781,22.424,70.705,19.112,64.688,16.954z"/>
</g>
</svg>
